<svg width="19" height="21" viewBox="0 0 19 21" fill="none" xmlns="http://www.w3.org/2000/svg">
<path d="M16.8885 2.09999H15.8329V0H13.7218V2.09999H5.27775V0H3.16665V2.09999H2.1111C0.939442 2.09999 0.0106067 3.0451 0.0106067 4.19998L0 18.9C0 20.0549 0.939496 21 2.1111 21H16.8889C18.0499 21 19 20.0549 19 18.9L18.9998 4.19998C18.9998 3.04505 18.0497 2.09999 16.8887 2.09999H16.8885ZM16.8885 18.8998H2.11069V8.39986H16.8885V18.8998ZM16.8885 6.29957L2.11069 6.29976V4.19978H16.8885V6.29976V6.29957ZM9.49934 11.5495H14.7771V16.7995H9.49934V11.5495Z" fill="#545454"/>
</svg>
