<svg width="20" height="18" viewBox="0 0 20 18" fill="none" xmlns="http://www.w3.org/2000/svg">
<path d="M6.74963 7.39274C6.74963 8.10285 6.17411 8.67866 5.46395 8.67866C4.75384 8.67866 4.17826 8.10291 4.17826 7.39274C4.17826 6.68286 4.75378 6.10706 5.46395 6.10706C6.17406 6.10706 6.74963 6.6828 6.74963 7.39274Z" fill="#545454"/>
<path d="M11.2496 7.39274C11.2496 8.10285 10.6739 8.67866 9.96393 8.67866C9.25382 8.67866 8.67802 8.10291 8.67802 7.39274C8.67802 6.68286 9.25376 6.10706 9.96393 6.10706C10.6738 6.10706 11.2496 6.6828 11.2496 7.39274Z" fill="#545454"/>
<path d="M15.7496 7.39274C15.7496 8.10285 15.1739 8.67866 14.4637 8.67866C13.7538 8.67866 13.178 8.10291 13.178 7.39274C13.178 6.68286 13.7538 6.10706 14.4637 6.10706C15.1738 6.10706 15.7496 6.6828 15.7496 7.39274Z" fill="#545454"/>
<path d="M0.642475 17.9999C0.803297 17.9999 0.963894 17.9355 1.09241 17.807L4.1139 14.7855L17.9997 14.7857C19.0604 14.7857 19.9282 13.9179 19.9282 12.8572V1.9285C19.9282 0.867785 19.0604 0 17.9997 0H1.9285C0.867784 0 0 0.867785 0 1.9285V17.3572C0 17.6145 0.128522 18 0.642814 18L0.642475 17.9999ZM1.28529 1.92864C1.28529 1.57516 1.57463 1.28583 1.9281 1.28583H17.9993C18.3528 1.28583 18.6421 1.57517 18.6421 1.92864V12.8573C18.6421 13.2108 18.3528 13.5002 17.9993 13.5002H3.85683C3.69601 13.5002 3.53541 13.5645 3.4069 13.6931L1.2853 15.8144L1.28529 1.92864Z" fill="#545454"/>
</svg>
