<svg width="20" height="21" viewBox="0 0 20 21" fill="none" xmlns="http://www.w3.org/2000/svg">
<path fill-rule="evenodd" clip-rule="evenodd" d="M0 1.35725C0 0.883856 0.38386 0.5 0.857246 0.5H7.71424C8.18763 0.5 8.57127 0.883861 8.57127 1.35725V8.21424C8.57127 8.68763 8.18762 9.07127 7.71424 9.07127H0.857246C0.383855 9.07127 0 8.68762 0 8.21424V1.35725ZM1.71428 2.21428V7.35716H6.85716V2.21428H1.71428Z" fill="#545454"/>
<path fill-rule="evenodd" clip-rule="evenodd" d="M0 12.7857C0 12.3123 0.38386 11.9285 0.857246 11.9285H7.71424C8.18763 11.9285 8.57127 12.3123 8.57127 12.7857V19.6427C8.57127 20.1161 8.18762 20.5 7.71424 20.5H0.857246C0.383855 20.5 0 20.1161 0 19.6427V12.7857ZM1.71428 13.6427V18.7856H6.85716V13.6427H1.71428Z" fill="#545454"/>
<path fill-rule="evenodd" clip-rule="evenodd" d="M11.4285 1.35725C11.4285 0.883856 11.8123 0.5 12.2857 0.5H19.1427C19.6161 0.5 20 0.883861 20 1.35725V8.21424C20 8.68763 19.6161 9.07127 19.1427 9.07127H12.2857C11.8123 9.07127 11.4285 8.68762 11.4285 8.21424V1.35725ZM13.1428 2.21428V7.35716H18.2856V2.21428H13.1428Z" fill="#545454"/>
<path fill-rule="evenodd" clip-rule="evenodd" d="M11.4285 12.7857C11.4285 12.3123 11.8123 11.9285 12.2857 11.9285H19.1427C19.6161 11.9285 20 12.3123 20 12.7857V19.6427C20 20.1161 19.6161 20.5 19.1427 20.5H12.2857C11.8123 20.5 11.4285 20.1161 11.4285 19.6427V12.7857ZM13.1428 13.6427V18.7856H18.2856V13.6427H13.1428Z" fill="#545454"/>
</svg>
