<svg width="20" height="20" viewBox="0 0 20 20" fill="none" xmlns="http://www.w3.org/2000/svg">
<path d="M19.1664 11.6667H18.333V8.33326C18.3332 8.11237 18.2453 7.90027 18.089 7.74401C17.9327 7.58773 17.7208 7.50004 17.4998 7.50004H10.8331V4.99994H11.6666C11.8876 4.99994 12.0996 4.91224 12.2558 4.75597C12.4121 4.59969 12.4998 4.38759 12.4998 4.16672V0.833226C12.4998 0.612338 12.4121 0.400236 12.2558 0.243976C12.0996 0.0876976 11.8876 0 11.6666 0H8.33309C8.1122 0 7.90027 0.087702 7.74401 0.243976C7.58756 0.400253 7.49986 0.612355 7.49986 0.833226V4.16672C7.49986 4.3876 7.58756 4.59971 7.74401 4.75597C7.90029 4.91224 8.11222 4.99994 8.33309 4.99994H9.16653V7.50004H2.49989C2.27901 7.50004 2.06708 7.58774 1.91082 7.74419C1.75437 7.90047 1.66667 8.1124 1.66667 8.33326V11.6666L0.833227 11.6667C0.612338 11.6667 0.400236 11.7544 0.243976 11.9107C0.0876977 12.067 0 12.2791 0 12.5V15.8335C0 16.0543 0.0877021 16.2665 0.243976 16.4227C0.400254 16.579 0.612356 16.6667 0.833227 16.6667H4.16672C4.38761 16.6667 4.59971 16.579 4.75597 16.4227C4.91223 16.2664 4.99995 16.0543 4.99995 15.8335V12.5C4.99995 12.2791 4.91225 12.067 4.75597 11.9107C4.59969 11.7544 4.38759 11.6667 4.16672 11.6667H3.33328V9.16665H9.16669V15.0001H8.33325C8.11237 15.0001 7.90043 15.0879 7.74418 15.2442C7.58773 15.4005 7.50003 15.6124 7.50003 15.8335V19.1668C7.50003 19.3878 7.58773 19.5998 7.74418 19.756C7.90046 19.9123 8.11239 20 8.33325 20H11.6667C11.8878 20 12.0997 19.9123 12.256 19.756C12.4123 19.5997 12.5 19.3878 12.5 19.1668V15.8335C12.5 15.6124 12.4123 15.4005 12.256 15.2442C12.0997 15.0879 11.8878 15.0001 11.6667 15.0001H10.8333V9.16665H16.6667V11.6667H15.8335C15.6124 11.6667 15.4005 11.7544 15.2442 11.9107C15.0879 12.067 15.0001 12.2791 15.0001 12.5V15.8335C15.0001 16.0543 15.0879 16.2665 15.2442 16.4227C15.4005 16.579 15.6124 16.6667 15.8335 16.6667H19.1668C19.3878 16.6667 19.5998 16.579 19.756 16.4227C19.9123 16.2664 20 16.0543 20 15.8335V12.5C20 12.2791 19.9123 12.067 19.756 11.9107C19.5997 11.7544 19.3878 11.6667 19.1668 11.6667L19.1664 11.6667ZM3.33308 15.0001H1.66642V13.3334H3.33308V15.0001ZM10.8334 18.3334H9.16671V16.6667H10.8334V18.3334ZM9.16671 3.33325V1.66659H10.8334V3.33325H9.16671ZM18.3334 15.0001H16.6668V13.3334H18.3334V15.0001Z" fill="#545454"/>
</svg>
