<svg width="20" height="21" viewBox="0 0 20 21" fill="none" xmlns="http://www.w3.org/2000/svg">
<path d="M0.833241 21H14.1668C14.3878 21 14.5997 20.9262 14.756 20.7949C14.9123 20.6636 15 20.4856 15 20.2999V18.8999H16.6667C16.8877 18.8999 17.0998 18.8263 17.2559 18.695C17.4122 18.5637 17.5001 18.3857 17.5001 18.2V16.8H19.1668C19.3878 16.8 19.5997 16.7262 19.756 16.5949C19.9123 16.4638 20 16.2856 20 16.0999V0.700091C20 0.514432 19.9123 0.336416 19.756 0.20511C19.5997 0.0738046 19.3878 0 19.1668 0H5.83323C5.61221 0 5.40028 0.0738135 5.24396 0.20511C5.08765 0.336407 4.99999 0.514423 4.99999 0.700091V2.10007H3.33334C3.11232 2.10007 2.90039 2.17388 2.74407 2.30501C2.58777 2.4363 2.49989 2.61432 2.49989 2.79999V4.19997H0.833241C0.612217 4.19997 0.400292 4.27378 0.243975 4.40508C0.0878742 4.53637 0 4.71439 0 4.90006V20.2999C0 20.4856 0.0878742 20.6636 0.243975 20.7949C0.400281 20.9262 0.612206 21 0.833241 21ZM6.66663 1.39995H18.3329V15.3997H6.66663V1.39995ZM4.16654 3.5H4.99976L4.99997 16.0997C4.99997 16.2854 5.08763 16.4636 5.24394 16.5947C5.40025 16.726 5.61218 16.7998 5.83321 16.7998H15.8332V17.4997H4.16645L4.16654 3.5ZM1.66667 5.59988H2.49989V18.1996C2.49989 18.3853 2.58777 18.5633 2.74407 18.6946C2.90038 18.8259 3.11231 18.8995 3.33334 18.8995H13.3334V19.5994L1.66658 19.5996L1.66667 5.59988Z" fill="#545454"/>
</svg>
