<svg width="14" height="7" viewBox="0 0 14 7" fill="none" xmlns="http://www.w3.org/2000/svg">
<path d="M7.00005 6.99999C6.85688 7.00074 6.71945 6.94865 6.61781 6.85502L0.158252 0.856777C0.0217576 0.730031 -0.0315312 0.545245 0.0184207 0.371978C0.0683691 0.19885 0.214081 0.0635482 0.40053 0.0171573C0.587106 -0.0293479 0.786093 0.0202572 0.922717 0.147002L7.00002 5.79537L13.0773 0.147002C13.2138 0.0202554 13.4128 -0.029351 13.5994 0.0171573C13.7859 0.0635386 13.9316 0.198844 13.9815 0.371978C14.0316 0.545229 13.9782 0.730005 13.8417 0.856777L7.38214 6.85502C7.28064 6.94865 7.1431 7.00074 7.00005 6.99999Z" fill="#545454"/>
</svg>
