<svg width="21" height="21" viewBox="0 0 21 21" fill="none" xmlns="http://www.w3.org/2000/svg">
<path d="M12.2452 21H8.74509C8.43247 21 8.14366 20.8331 7.98735 20.5624C7.83104 20.2917 7.83104 19.9581 7.98735 19.6875C8.14366 19.4168 8.43247 19.2499 8.74509 19.2499H12.2452C12.5578 19.2499 12.8466 19.4168 13.0029 19.6875C13.1592 19.9582 13.1592 20.2918 13.0029 20.5624C12.8466 20.8331 12.5578 21 12.2452 21Z" fill="#545454"/>
<path d="M20.12 17.5002H0.869905C0.606741 17.4986 0.358233 17.3787 0.193185 17.1738C0.0283249 16.9686 -0.0355798 16.7001 0.0191705 16.4429C0.0741239 16.1854 0.241829 15.9664 0.476091 15.8466C0.858728 15.6567 1.18053 15.3634 1.40457 14.9999C1.62886 14.6364 1.74671 14.2173 1.74487 13.7903V8.75014C1.74487 6.42951 2.66663 4.20391 4.30773 2.56286C5.94857 0.921814 8.17417 0 10.495 0C12.8156 0 15.0412 0.921762 16.6823 2.56286C18.3233 4.2037 19.2452 6.4293 19.2452 8.75014V13.7903C19.2433 14.2173 19.3612 14.6364 19.5855 14.9999C19.8097 15.3634 20.1313 15.6567 20.5139 15.8466C20.7482 15.9665 20.9159 16.1854 20.9709 16.4429C21.0256 16.7002 20.9617 16.9686 20.7968 17.1738C20.6318 17.3787 20.3835 17.4986 20.1203 17.5002H20.12ZM2.99624 15.7503H17.9937C17.6632 15.15 17.4916 14.4754 17.4948 13.7903V8.75012C17.4948 6.24937 16.1607 3.93848 13.9947 2.68789C11.829 1.43741 9.16054 1.43741 6.99465 2.68789C4.82892 3.93837 3.49455 6.24926 3.49455 8.75012V13.7903C3.49781 14.4754 3.32623 15.1501 2.99591 15.7503H2.99624Z" fill="#545454"/>
</svg>
