<svg width="20" height="17" viewBox="0 0 20 17" fill="none" xmlns="http://www.w3.org/2000/svg">
<path d="M5.57405 9.29529C5.84393 8.96809 5.92017 8.52532 5.77861 8.11074C5.62823 7.67099 5.26258 7.36417 4.88894 7.36417C4.65413 7.36417 4.43529 7.479 4.25573 7.69697L2.4993 9.82672C2.13553 10.2677 2.13532 10.9851 2.49867 11.4258C2.66794 11.631 2.90821 11.7489 3.15795 11.7489C3.40662 11.7489 3.64625 11.6318 3.81594 11.4271L5.57405 9.29529ZM7.32796 10.1814C7.17779 9.74143 6.81172 9.4346 6.43786 9.4346C6.20326 9.4346 5.98441 9.54943 5.80487 9.76689L3.96799 11.9931C3.60423 12.4341 3.60423 13.1512 3.96799 13.5925C4.14399 13.8053 4.37838 13.9227 4.62728 13.9227C4.87617 13.9227 5.11033 13.8056 5.28634 13.5919L7.12322 11.3649C7.3931 11.0382 7.46972 10.5957 7.32796 10.1814ZM8.39909 13.7618L8.40035 13.7634C8.67023 13.4362 8.74626 12.9934 8.6045 12.5788C8.45412 12.1393 8.08846 11.8327 7.71483 11.8327C7.48023 11.8327 7.26138 11.9476 7.08183 12.1656L7.06797 12.1826L6.44525 12.9376C6.04221 13.4262 5.88678 13.6147 5.82231 13.6984L5.82021 13.6954C5.55264 14.0195 5.47787 14.4899 5.62552 14.9227C5.77338 15.3558 6.10059 15.6252 6.47928 15.6252C6.72795 15.6252 6.96233 15.5076 7.13856 15.2934L7.15242 15.2766C7.20765 15.2097 7.43217 14.9375 7.67601 14.6416C8.17356 14.0389 8.33925 13.8382 8.39909 13.7618ZM12.6731 3.89074H9.97256L9.89423 3.97987C9.38764 4.55763 8.36189 5.52627 7.18429 5.52627C7.01669 5.52627 6.85036 5.50564 6.6899 5.46541C6.14868 5.32867 5.71936 4.95462 5.54129 4.46468C5.3111 3.82988 5.56082 3.20197 5.87102 2.82558L8.20147 0.000169092H6.00377C5.66227 0.000169092 5.36616 0.316679 5.15023 0.54788L5.08261 0.619689C4.89023 0.819574 4.70561 1.03041 4.52102 1.2415C4.41432 1.36322 4.30763 1.48519 4.19926 1.60512C3.65885 2.20248 3.07732 2.78608 2.42895 2.78608H0V10.6462H1.77364L1.80935 10.3684C1.8545 10.0147 1.98598 9.69743 2.18886 9.4507L3.9453 7.32095C4.26748 6.93085 4.62996 6.84861 4.87761 6.84861C5.26216 6.84861 5.64986 7.05028 5.91471 7.38741C6.0905 7.61148 6.29527 7.99751 6.27196 8.56714L6.25873 8.89663L6.5305 8.9114C6.92892 8.93304 7.29834 9.17113 7.54469 9.5643C7.79357 9.96204 7.88409 10.4634 7.79315 10.9411L7.72973 11.2739L8.00633 11.3381C8.68072 11.4944 9.15913 12.2713 9.09552 13.1073L9.07053 13.436L9.34168 13.4645C9.79407 13.5124 10.1813 13.823 10.4046 14.3173C10.6268 14.8095 10.6344 15.3936 10.4244 15.8795L10.332 16.0933L10.8049 16.6665C10.9843 16.8842 11.2034 16.9996 11.4381 16.9996C11.8112 16.9993 12.1768 16.6933 12.3272 16.2548C12.4692 15.8412 12.3938 15.3989 12.1249 15.0702L9.58194 11.9869C9.51641 11.9074 9.50087 11.827 9.533 11.7333C9.59202 11.5596 9.76697 11.4608 9.89172 11.6115L12.9279 15.293C13.1039 15.5072 13.3385 15.6253 13.5882 15.6253C13.9662 15.6253 14.293 15.3569 14.4405 14.9251C14.5864 14.4976 14.5098 14.014 14.2451 13.6934L11.2101 10.0127C11.1448 9.93352 11.129 9.85305 11.1611 9.7596C11.2208 9.5862 11.3949 9.48638 11.5199 9.63789L15.0527 13.921C15.2323 14.1388 15.4511 14.2541 15.6857 14.2541C16.0589 14.2539 16.4245 13.9465 16.5749 13.507C16.7167 13.0915 16.6402 12.6486 16.3702 12.3212L12.8388 8.0391C12.7733 7.95966 12.7575 7.87894 12.7894 7.78524C12.8491 7.61183 13.023 7.51202 13.1481 7.66378L16.2525 11.4277C16.4319 11.6442 16.6501 11.7588 16.8838 11.7588C17.2577 11.7588 17.6233 11.4514 17.7737 11.0119C17.9151 10.5971 17.8388 10.1543 17.5689 9.82736L12.6731 3.89074ZM17.5719 2.78617C16.9229 2.78617 16.3416 2.20281 15.8016 1.6052C15.6934 1.48527 15.5865 1.36356 15.4798 1.24159C15.295 1.03075 15.1106 0.819912 14.9182 0.619772L14.8502 0.547457C14.6341 0.316249 14.3379 0 13.9969 0L9.37823 0.000254632C8.98212 0.000254632 8.72653 0.114329 8.49592 0.393918L6.18123 3.20049C5.86368 3.58447 5.8895 3.95397 5.93277 4.14008C6.01993 4.51286 6.32279 4.8156 6.72373 4.9302C6.94614 4.9936 7.20153 5.00404 7.4464 4.9689C7.85112 4.91186 8.26526 4.73438 8.67776 4.44156C8.92349 4.26688 9.17153 4.0479 9.41559 3.79021C9.46348 3.73954 9.51031 3.68276 9.55757 3.62572C9.6943 3.45995 9.78461 3.35912 9.88122 3.35912H12.7632C12.8218 3.35912 12.8766 3.38662 12.9182 3.43704L17.8779 9.45069C18.081 9.69743 18.2123 10.0147 18.2574 10.3679L18.2931 10.6459H19.9996L20 2.78646L17.5719 2.78617ZM9.22145 13.9877C8.97551 13.9877 8.73524 14.1086 8.5626 14.3187L7.9388 15.0747C7.6727 15.4027 7.5994 15.8455 7.74222 16.258C7.89344 16.6947 8.25825 17 8.62958 17C8.86417 17 9.08302 16.8847 9.26219 16.6672C9.70219 16.1337 9.83513 15.9728 9.87927 15.9173L9.8799 15.9181C10.1441 15.5975 10.2203 15.1152 10.0746 14.6882C9.92673 14.2558 9.60011 13.9877 9.22145 13.9877Z" fill="#545454"/>
</svg>
